<?xml version="1.0" encoding="iso-8859-1"?>
<!-- Generator: Adobe Illustrator 18.0.0, SVG Export Plug-In . SVG Version: 6.00 Build 0)  -->
<!DOCTYPE svg PUBLIC "-//W3C//DTD SVG 1.1//EN" "http://www.w3.org/Graphics/SVG/1.1/DTD/svg11.dtd">
<svg version="1.1" id="Capa_1" xmlns="http://www.w3.org/2000/svg" xmlns:xlink="http://www.w3.org/1999/xlink" x="0px" y="0px"
	 viewBox="0 0 462.941 462.941" xml:space="preserve" fill="#EEE">
<g>
	<path id="XMLID_1736_" d="M447.941,171.765h-3.824v-39.118c0-2.719-0.739-5.386-2.138-7.717l-28.235-47.059
		c-2.711-4.518-7.593-7.283-12.862-7.283c-5.269,0-10.151,2.765-12.862,7.283l-28.235,47.059c-1.399,2.331-2.138,4.998-2.138,7.717
		v39.118h-26.47v-39.118c0-2.719-0.739-5.386-2.138-7.717l-28.235-47.059c-2.711-4.518-7.593-7.283-12.862-7.283
		c-5.269,0-10.151,2.765-12.862,7.283l-28.235,47.059c-1.399,2.331-2.138,4.998-2.138,7.717v39.118h-26.471v-39.118
		c0-2.719-0.739-5.386-2.138-7.717l-28.235-47.059c-2.711-4.518-7.593-7.283-12.862-7.283c-5.269,0-10.151,2.765-12.862,7.283
		l-28.235,47.059c-1.399,2.331-2.138,4.998-2.138,7.717v39.118h-26.47v-39.118c0-2.719-0.739-5.386-2.138-7.717L74.921,77.871
		c-2.711-4.518-7.593-7.283-12.862-7.283c-5.269,0-10.151,2.765-12.862,7.283L20.961,124.93c-1.399,2.331-2.138,4.998-2.138,7.717
		v39.118H15c-8.284,0-15,6.716-15,15v37.648c0,8.284,6.716,15,15,15h3.824v137.941c0,8.284,6.716,15,15,15h56.471
		c8.284,0,15-6.716,15-15V239.412h26.47v137.941c0,8.284,6.716,15,15,15h56.471c8.284,0,15-6.716,15-15V239.412h26.471v137.941
		c0,8.284,6.716,15,15,15h56.471c8.284,0,15-6.716,15-15V239.412h26.47v137.941c0,8.284,6.716,15,15,15h56.471
		c8.284,0,15-6.716,15-15V239.412h3.824c8.284,0,15-6.716,15-15v-37.648C462.941,178.48,456.226,171.765,447.941,171.765z"/>
</g>
</svg>
