<?xml version="1.0" encoding="iso-8859-1"?>
<!-- Generator: Adobe Illustrator 19.0.0, SVG Export Plug-In . SVG Version: 6.00 Build 0)  -->
<svg version="1.1" id="Layer_1" xmlns="http://www.w3.org/2000/svg" xmlns:xlink="http://www.w3.org/1999/xlink" x="0px" y="0px"
	 viewBox="0 0 512 512" style="enable-background:new 0 0 512 512;" xml:space="preserve" fill="#FA8072">
<g>
	<path d="M249.556,90.353H181.7V22.588C181.7,10.115,171.588,0,159.112,0H98.876C86.403,0,76.288,10.115,76.288,22.588
		c0,12.475,10.115,22.588,22.588,22.588h37.647v45.177h-16.053c-62.276,0-112.941,50.665-112.941,112.941V384
		c0,12.475,10.115,22.588,22.588,22.588h91.347v82.824c0,12.475,10.115,22.588,22.588,22.588c12.476,0,22.588-10.114,22.588-22.588
		v-82.824h25.48c-2.506-7.07-3.885-14.67-3.885-22.588V225.882C188.235,171.961,211.983,123.491,249.556,90.353z"/>
	<path d="M368.941,90.353c-74.729,0-135.529,60.798-135.529,135.529V384c0,12.475,10.115,22.588,22.588,22.588h225.882
		c12.476,0,22.588-10.114,22.588-22.588V225.882C504.471,151.151,443.674,90.353,368.941,90.353z M391.529,316.235h-45.176
		c-12.473,0-22.588-10.114-22.588-22.588c0-12.475,10.115-22.588,22.588-22.588h45.176c12.476,0,22.588,10.114,22.588,22.588
		C414.118,306.122,404.006,316.235,391.529,316.235z"/>
</g>
</svg>
