<?xml version="1.0" encoding="UTF-8" standalone="no"?>
<!-- Generator: Adobe Illustrator 19.0.0, SVG Export Plug-In . SVG Version: 6.00 Build 0)  -->

<svg
   xmlns:dc="http://purl.org/dc/elements/1.1/"
   xmlns:cc="http://creativecommons.org/ns#"
   xmlns:rdf="http://www.w3.org/1999/02/22-rdf-syntax-ns#"
   xmlns:svg="http://www.w3.org/2000/svg"
   xmlns="http://www.w3.org/2000/svg"
   xmlns:sodipodi="http://sodipodi.sourceforge.net/DTD/sodipodi-0.dtd"
   xmlns:inkscape="http://www.inkscape.org/namespaces/inkscape"
   version="1.1"
   id="Layer_1"
   x="0px"
   y="0px"
   viewBox="0 0 512 512"
   style="enable-background:new 0 0 512 512;"
   xml:space="preserve"
   sodipodi:docname="picket-svgrepo-com.svg"
   inkscape:version="0.92.3 (2405546, 2018-03-11)"><metadata
   id="metadata3746"><rdf:RDF><cc:Work
       rdf:about=""><dc:format>image/svg+xml</dc:format><dc:type
         rdf:resource="http://purl.org/dc/dcmitype/StillImage" /></cc:Work></rdf:RDF></metadata><defs
   id="defs3744" /><sodipodi:namedview
   pagecolor="#ffffff"
   bordercolor="#666666"
   borderopacity="1"
   objecttolerance="10"
   gridtolerance="10"
   guidetolerance="10"
   inkscape:pageopacity="0"
   inkscape:pageshadow="2"
   inkscape:window-width="3840"
   inkscape:window-height="2066"
   id="namedview3742"
   showgrid="false"
   inkscape:zoom="1.84375"
   inkscape:cx="318.92547"
   inkscape:cy="421.4312"
   inkscape:window-x="-11"
   inkscape:window-y="-11"
   inkscape:window-maximized="1"
   inkscape:current-layer="Layer_1" />
<g
   id="g3739"
   style="fill:#000000">
	<path
   d="M507.109,85.586l-50.087-50.088c-6.519-6.519-17.091-6.519-23.611,0l-50.087,50.087c-3.131,3.131-4.89,7.377-4.89,11.806   v50.087h-55.652V97.391c0-4.429-1.759-8.675-4.891-11.805l-50.087-50.087c-6.519-6.519-17.091-6.519-23.611,0l-50.087,50.087   c-3.131,3.13-4.89,7.376-4.89,11.805v50.087h-55.652V97.391c0-4.429-1.759-8.675-4.891-11.805L78.588,35.499   c-6.519-6.519-17.091-6.519-23.611,0L4.89,85.586C1.759,88.716,0,92.962,0,97.391v367.304c0,9.22,7.475,16.696,16.696,16.696   H116.87c9.22,0,16.696-7.475,16.696-16.696v-50.087h55.652v50.087c0,9.22,7.475,16.696,16.696,16.696h100.174   c9.22,0,16.696-7.475,16.696-16.696v-50.087h55.652v50.087c0,9.22,7.475,16.696,16.696,16.696h100.174   c9.22,0,16.696-7.475,16.696-16.696V97.391C512,92.962,510.241,88.716,507.109,85.586z M100.174,448H33.391V104.306l33.391-33.391   l33.391,33.391C100.174,120.191,100.174,432.638,100.174,448z M189.217,381.217h-55.652v-33.391h55.652V381.217z M189.217,314.435   h-55.652v-66.783h55.652V314.435z M189.217,214.261h-55.652v-33.391h55.652V214.261z M289.391,448h-66.783   c0-13.587,0-331.301,0-343.693L256,70.915l33.391,33.391C289.391,114.759,289.391,438.621,289.391,448z M378.435,381.217h-55.652   v-33.391h55.652V381.217z M378.435,314.435h-55.652v-66.783h55.652V314.435z M378.435,214.261h-55.652v-33.391h55.652V214.261z    M478.609,448h-66.783c0-7.303,0-336.234,0-343.693l33.391-33.391l33.391,33.391V448z"
   id="path3737"
   style="fill:#000000" />
</g>
<path
   style="fill:#ffffff;fill-opacity:1;stroke:none;stroke-width:4.09982681;stroke-miterlimit:4;stroke-dasharray:none;stroke-opacity:1"
   d="M 33.745805,275.97563 V 104.17569 L 50.288178,87.639985 66.830551,71.104281 83.372924,87.639985 99.915297,104.17569 V 275.97563 447.77558 H 66.830551 33.745805 Z"
   id="path3748"
   inkscape:connector-curvature="0" /><path
   style="fill:#ffffff;fill-opacity:1;stroke:none;stroke-width:4.09982681;stroke-miterlimit:4;stroke-dasharray:none;stroke-opacity:1"
   d="M 223.03394,275.97563 V 104.17569 l 16.41006,-16.403446 16.41006,-16.403445 16.67469,16.681195 16.67468,16.681196 v 171.52219 171.5222 h -33.08474 -33.08475 z"
   id="path3750"
   inkscape:connector-curvature="0" /><path
   style="fill:#ffffff;fill-opacity:1;stroke:none;stroke-width:4.09982681;stroke-miterlimit:4;stroke-dasharray:none;stroke-opacity:1"
   d="M 412.32208,275.97563 V 104.17569 l 16.41006,-16.403446 16.41006,-16.403445 16.67468,16.681195 16.67469,16.681196 v 171.52219 171.5222 h -33.08475 -33.08474 z"
   id="path3752"
   inkscape:connector-curvature="0" /><path
   style="fill:#ffffff;fill-opacity:1;stroke:none;stroke-width:4.09982681;stroke-miterlimit:4;stroke-dasharray:none;stroke-opacity:1"
   d="m 322.83055,197.47049 v -16.54237 h 27.66102 27.66101 v 16.54237 16.54238 h -27.66101 -27.66102 z"
   id="path3754"
   inkscape:connector-curvature="0" /><path
   style="fill:#ffffff;fill-opacity:1;stroke:none;stroke-width:4.09982681;stroke-miterlimit:4;stroke-dasharray:none;stroke-opacity:1"
   d="m 134.08479,197.47049 v -16.54237 h 27.38983 27.38983 v 16.54237 16.54238 h -27.38983 -27.38983 z"
   id="path3756"
   inkscape:connector-curvature="0" /><path
   style="fill:#ffffff;fill-opacity:1;stroke:none;stroke-width:4.09982681;stroke-miterlimit:4;stroke-dasharray:none;stroke-opacity:1"
   d="m 134.08479,364.52134 v -16.54237 h 27.38983 27.38983 v 16.54237 16.54237 h -27.38983 -27.38983 z"
   id="path3758"
   inkscape:connector-curvature="0" /><path
   style="fill:#ffffff;fill-opacity:1;stroke:none;stroke-width:4.09982681;stroke-miterlimit:4;stroke-dasharray:none;stroke-opacity:1"
   d="m 322.83055,364.52134 v -16.54237 h 27.66102 27.66101 v 16.54237 16.54237 h -27.66101 -27.66102 z"
   id="path3760"
   inkscape:connector-curvature="0" /></svg>