<?xml version="1.0" encoding="iso-8859-1"?>
<!-- Generator: Adobe Illustrator 17.1.0, SVG Export Plug-In . SVG Version: 6.00 Build 0)  -->
<!DOCTYPE svg PUBLIC "-//W3C//DTD SVG 1.1//EN" "http://www.w3.org/Graphics/SVG/1.1/DTD/svg11.dtd">
<svg version="1.1" id="Capa_1" xmlns="http://www.w3.org/2000/svg" xmlns:xlink="http://www.w3.org/1999/xlink" x="0px" y="0px"
	 viewBox="0 0 399.54 399.54" style="enable-background:new 0 0 399.54 399.54;" xml:space="preserve" fill="#fddf4a">
<g>
	<path d="M110.164,319.595H89.666V186.447c0-4.962-4.038-9-9-9H52.668c-4.962,0-9,4.038-9,9v133.148H23.169c-4.962,0-9,4.038-9,9
		v20.499c0,4.962,4.038,9,9,9h86.995c4.962,0,9-4.038,9-9v-20.499C119.164,323.633,115.127,319.595,110.164,319.595z"/>
	<path d="M376.371,319.595h-20.499V186.447c0-4.962-4.038-9-9-9h-27.998c-4.962,0-9,4.038-9,9v133.148h-20.499c-4.962,0-9,4.038-9,9
		v20.499c0,4.962,4.038,9,9,9h86.995c4.962,0,9-4.038,9-9v-20.499C385.371,323.633,381.333,319.595,376.371,319.595z"/>
	<path d="M5.424,95.442C5.424,95.442,5.424,95.442,5.424,95.442c1.089,0,3.161-0.352,4.816-2.702l29.418-41.78
		c1.393-1.978,1.608-4.347,0.575-6.336c-1.032-1.989-3.093-3.177-5.512-3.177H7c-3.86,0-7,3.14-7,7v41.051
		C0,93.358,2.794,95.442,5.424,95.442z"/>
	<path d="M112.697,159.191c1.005,2.039,3.076,3.255,5.539,3.255h62.871c2.672,0,5.559-1.424,7.184-3.542l82.764-107.828
		c1.5-1.955,1.795-4.338,0.79-6.375c-1.005-2.038-3.076-3.254-5.539-3.254h-62.872c-2.67,0-5.557,1.423-7.184,3.542l-82.763,107.827
		C111.988,154.769,111.692,157.153,112.697,159.191z"/>
	<path d="M228.49,159.191c1.005,2.039,3.076,3.255,5.54,3.255H296.9c2.671,0,5.559-1.424,7.184-3.542l82.764-107.828
		c1.499-1.955,1.795-4.338,0.79-6.375c-1.005-2.038-3.076-3.254-5.539-3.254h-62.871c-2.67,0-5.557,1.423-7.184,3.542
		l-82.763,107.827C227.781,154.769,227.485,157.153,228.49,159.191z"/>
	<path d="M72.498,158.904l82.764-107.828c1.5-1.954,1.795-4.338,0.79-6.375c-1.005-2.038-3.075-3.254-5.538-3.254H87.643
		c-2.666,0-5.551,1.418-7.181,3.529L2.263,146.338C0.909,148.093,0,150.76,0,152.976v2.471c0,3.86,3.14,7,7,7h58.314
		C67.986,162.446,70.873,161.022,72.498,158.904z"/>
	<path d="M394.039,97.115c-1.006,0-2.945,0.303-4.625,2.33l-44.165,53.27c-1.599,1.928-1.969,4.323-0.991,6.405
		c0.979,2.083,3.058,3.326,5.563,3.326h42.719c3.86,0,7-3.14,7-7v-52.35C399.54,99.211,396.706,97.115,394.039,97.115z"/>
	<path d="M292.283,259.77V247.1c0-7.168-5.832-13-13-13H120.257c-7.168,0-13,5.832-13,13v12.67c0,7.169,5.832,13,13,13h159.026
		C286.452,272.77,292.283,266.939,292.283,259.77z"/>
</g>
</svg>
